<svg xmlns="http://www.w3.org/2000/svg" width="26" height="31" viewBox="0 0 26 31">
  <g id="Polygon_3" data-name="Polygon 3" transform="translate(26) rotate(90)" fill="none">
    <path d="M12.923,4.322a3,3,0,0,1,5.154,0L28.3,21.464A3,3,0,0,1,25.719,26H5.281A3,3,0,0,1,2.7,21.464Z" stroke="none"/>
    <path d="M 15.5 4.858631134033203 C 15.32919979095459 4.858631134033203 14.90360069274902 4.906181335449219 14.64105033874512 5.34657096862793 L 4.422159194946289 22.48793983459473 C 4.153169631958008 22.93914985656738 4.325170516967773 23.34177017211914 4.411609649658203 23.49393081665039 C 4.498050689697266 23.64609146118164 4.755800247192383 24 5.281110763549805 24 L 25.71889114379883 24 C 26.24419975280762 24 26.50194931030273 23.64609146118164 26.5883903503418 23.49393081665039 C 26.67482948303223 23.34177017211914 26.84683036804199 22.93914985656738 26.57783889770508 22.48793983459473 L 16.35894966125488 5.34657096862793 C 16.09640121459961 4.906181335449219 15.67080020904541 4.858631134033203 15.5 4.858631134033203 M 15.5 2.858634948730469 C 16.49753570556641 2.858634948730469 17.49507141113281 3.34657096862793 18.07683944702148 4.322441101074219 L 28.29573059082031 21.46380996704102 C 29.48785972595215 23.46351051330566 28.0469799041748 26 25.71889114379883 26 L 5.281110763549805 26 C 2.953020095825195 26 1.512140274047852 23.46351051330566 2.704269409179688 21.46380996704102 L 12.92316055297852 4.322441101074219 C 13.50493049621582 3.34657096862793 14.50246429443359 2.858634948730469 15.5 2.858634948730469 Z" stroke="none" fill="#fff"/>
  </g>
</svg>
