<svg xmlns="http://www.w3.org/2000/svg" width="30.001" height="30.001" viewBox="0 0 30.001 30.001">
  <g id="Group" transform="translate(-14 109.99)">
    <path id="path81" d="M14-109.99v30H44v-30Z" fill="none" fill-rule="evenodd"/>
    <path id="path83" d="M19-86.219v2.8a2.158,2.158,0,0,0,2.444,2.434H37.555A2.159,2.159,0,0,0,40-83.424v-18.261a3.445,3.445,0,0,0-1.223-2.434l-3.665-3.652a4.066,4.066,0,0,0-2.444-1.219H21.444A2.3,2.3,0,0,0,19-106.555v10.336" fill="none" stroke="#df0a1e" stroke-linecap="round" stroke-linejoin="round" stroke-miterlimit="79.84" stroke-width="2" fill-rule="evenodd"/>
    <path id="path85" d="M32.668-107.771v4.868a1.213,1.213,0,0,0,1.22,1.219h4.889" fill="none" stroke="#df0a1e" stroke-linecap="round" stroke-linejoin="round" stroke-miterlimit="79.84" stroke-width="2" fill-rule="evenodd"/>
    <path id="path87" d="M16-87.331v-8.318a1.342,1.342,0,0,1,1.34-1.34H35.66A1.342,1.342,0,0,1,37-95.649v8.318a1.342,1.342,0,0,1-1.34,1.34H17.339A1.342,1.342,0,0,1,16-87.331Zm3.707-.66v-2.373h1.088a3.089,3.089,0,0,0,2.032-.613,2.012,2.012,0,0,0,.741-1.636,2.281,2.281,0,0,0-.343-1.237,2.232,2.232,0,0,0-.967-.84,3.312,3.312,0,0,0-1.435-.3H18v7Zm8.76-.435a2.978,2.978,0,0,0,1.156-1.192,3.575,3.575,0,0,0,.411-1.722v-.321a3.563,3.563,0,0,0-.425-1.718,2.969,2.969,0,0,0-1.168-1.187,3.385,3.385,0,0,0-1.685-.42H24.475v7H26.8A3.3,3.3,0,0,0,28.465-88.426Zm4.207.435v-2.7l2.057,0v-1.3l-2.057,0v-1.7l2.328,0v-1.3l-4,0v7Zm-6.492-1.3v-4.4h.573a1.354,1.354,0,0,1,1.145.515,2.487,2.487,0,0,1,.393,1.528v.3A2.513,2.513,0,0,1,27.9-89.8a1.33,1.33,0,0,1-1.127.516Zm-6.475-2.378v-2.018h1.136a.954.954,0,0,1,.729.3,1.118,1.118,0,0,1,.267.783.9.9,0,0,1-.26.692,1.058,1.058,0,0,1-.755.245Z" fill="#df0a1e" fill-rule="evenodd"/>
  </g>
</svg>
