<svg xmlns="http://www.w3.org/2000/svg" width="26.006" height="26" viewBox="0 0 26.006 26">
  <path id="path94" d="M80.01,66.28V53.72A6.724,6.724,0,0,1,86.732,47H99.295a6.725,6.725,0,0,1,6.721,6.72V66.28A6.725,6.725,0,0,1,99.295,73H86.732A6.724,6.724,0,0,1,80.01,66.28Zm24.005,0V53.72A4.727,4.727,0,0,0,99.295,49H86.732a4.726,4.726,0,0,0-4.721,4.72V66.28A4.726,4.726,0,0,0,86.732,71H99.295A4.727,4.727,0,0,0,104.016,66.28Zm-17-6.28a6,6,0,1,1,6,6A6.006,6.006,0,0,1,87.013,60Zm10,0a4,4,0,1,0-4,4,4,4,0,0,0,4-4Zm1.5-6.747a1.251,1.251,0,1,1,1.251,1.253A1.251,1.251,0,0,1,98.513,53.253Z" transform="translate(-80.01 -47)" fill="#e20615" fill-rule="evenodd"/>
</svg>
