<svg xmlns="http://www.w3.org/2000/svg" width="60.001" height="59.995" viewBox="0 0 60.001 59.995">
  <g id="Group_1" transform="translate(0 59.995)">
    <path id="path90" d="M0-60V0H60V-60Z" fill="none" fill-rule="evenodd"/>
    <path id="path92" d="M10-14.283v8.42c0,3.381.776,3.869,3.888,3.869H48.111C51.22-1.993,52-2.481,52-5.862V-44.384a4.283,4.283,0,0,0-1.445-3.869l-8.331-8.3a4.4,4.4,0,0,0-3.888-1.437H13.889c-2.731,0-3.888.749-3.888,3.869v21.843" fill="none" stroke="#df0a1e" stroke-linecap="round" stroke-linejoin="round" stroke-miterlimit="79.84" stroke-width="2" fill-rule="evenodd"/>
    <path id="path94" d="M38.993-56.994v9.586a2.386,2.386,0,0,0,2.4,2.4H51" fill="none" stroke="#df0a1e" stroke-linecap="round" stroke-linejoin="round" stroke-miterlimit="79.84" stroke-width="2" fill-rule="evenodd"/>
    <path id="path96" d="M4-14.677V-31.314a2.682,2.682,0,0,1,2.68-2.68H44.32A2.682,2.682,0,0,1,47-31.314v16.637A2.682,2.682,0,0,1,44.32-12H6.679A2.682,2.682,0,0,1,4-14.677ZM12-16v-4.748l2.019-.005a5.182,5.182,0,0,0,3.651-1.225A4.232,4.232,0,0,0,19-25.248a4.945,4.945,0,0,0-.616-2.474A4.192,4.192,0,0,0,16.649-29.4a5.447,5.447,0,0,0-2.58-.591H9V-16Zm16.463-.869a5.614,5.614,0,0,0,1.872-2.385A9.907,9.907,0,0,0,31-23a10.732,10.732,0,0,0-.689-3.778,5.529,5.529,0,0,0-1.891-2.376A4.678,4.678,0,0,0,25.691-30H21v14h4.768A4.591,4.591,0,0,0,28.463-16.868ZM36-16v-5h4v-3H36v-3h5v-3H33v14ZM24-18.819v-8.355h1.153a2.347,2.347,0,0,1,2.063,1.029,4.061,4.061,0,0,1,.777,2.662v.961a4.07,4.07,0,0,1-.777,2.668,2.309,2.309,0,0,1-2.028,1.035ZM12-23.35v-4.036l2.22-.005a1.633,1.633,0,0,1,1.309.6,2.394,2.394,0,0,1,.479,1.567,1.92,1.92,0,0,1-.467,1.383,1.787,1.787,0,0,1-1.357.491Z" fill="#df0a1e" fill-rule="evenodd"/>
  </g>
</svg>
