<svg xmlns="http://www.w3.org/2000/svg" width="30.004" height="30.037" viewBox="0 0 30.004 30.037">
  <g id="Group_2" transform="translate(-85.997 110.029)">
    <path id="path99" d="M116-109.99v30H86v-30Z" fill="none" fill-rule="evenodd"/>
    <path id="path101" d="M91.625-101.872l-3.181,2.694A2.715,2.715,0,0,0,88-97.544l0,13.109a2.3,2.3,0,0,0,2.435,2.442h21.135A2.158,2.158,0,0,0,114-84.434V-97.544a2.63,2.63,0,0,0-.5-1.715l-2.823-2.382" fill="none" stroke="#df0a1e" stroke-linecap="round" stroke-linejoin="round" stroke-miterlimit="79.84" stroke-width="2" fill-rule="evenodd"/>
    <path id="path103" d="M106.121-105.483,103-108.115a2.7,2.7,0,0,0-4,0l-3.428,2.9" fill="none" stroke="#df0a1e" stroke-linecap="round" stroke-linejoin="round" stroke-miterlimit="79.84" stroke-width="2" fill-rule="evenodd"/>
    <path id="path105" d="M91-96.99l10,8" fill="none" stroke="#df0a1e" stroke-linecap="round" stroke-linejoin="round" stroke-miterlimit="79.84" stroke-width="2" fill-rule="evenodd"/>
    <path id="path107" d="M111-96.99l-10,8" fill="none" stroke="#df0a1e" stroke-linecap="round" stroke-linejoin="round" stroke-miterlimit="79.84" stroke-width="2" fill-rule="evenodd"/>
    <path id="path109" d="M92-96.99l0-6.469a1.473,1.473,0,0,1,1.588-1.531h14.824A1.38,1.38,0,0,1,110-103.459v6.469" fill="none" stroke="#df0a1e" stroke-linecap="round" stroke-linejoin="round" stroke-miterlimit="79.84" stroke-width="2" fill-rule="evenodd"/>
    <path id="path111" d="M98-90.991l-6,5" fill="none" stroke="#df0a1e" stroke-linecap="round" stroke-linejoin="round" stroke-miterlimit="79.84" stroke-width="2" fill-rule="evenodd"/>
    <path id="path113" d="M105-90.991l6,5" fill="none" stroke="#df0a1e" stroke-linecap="round" stroke-linejoin="round" stroke-miterlimit="79.84" stroke-width="2" fill-rule="evenodd"/>
  </g>
</svg>
