<svg xmlns="http://www.w3.org/2000/svg" width="60.007" height="59.995" viewBox="0 0 60.007 59.995">
  <g id="Group_3" transform="translate(-71.993 59.995)">
    <path id="path116" d="M132-60V0H71.993V-60Z" fill="none" fill-rule="evenodd"/>
    <path id="path118" d="M120.086-42.366l6.5,5.507a4.764,4.764,0,0,1,1.423,3.757V-5.883c0,2.554-1.088,3.885-3.869,3.885H79.87C77.2-2,76-3.36,76-5.883l.008-27.529a4.012,4.012,0,0,1,1.2-3.222L83.773-42.2" fill="none" stroke="#df0a1e" stroke-linecap="round" stroke-linejoin="round" stroke-miterlimit="79.84" stroke-width="2" fill-rule="evenodd"/>
    <path id="path120" d="M90.716-48.077l7.863-6.579c2.691-2.309,4.269-2.31,6.811-.089l7.793,6.557" fill="none" stroke="#df0a1e" stroke-linecap="round" stroke-linejoin="round" stroke-miterlimit="79.84" stroke-width="2" fill-rule="evenodd"/>
    <path id="path122" d="M80.626-33.1,102-16" fill="none" stroke="#df0a1e" stroke-linecap="round" stroke-linejoin="round" stroke-miterlimit="79.84" stroke-width="2" fill-rule="evenodd"/>
    <path id="path124" d="M123.564-33.246,102-16" fill="none" stroke="#df0a1e" stroke-linecap="round" stroke-linejoin="round" stroke-miterlimit="79.84" stroke-width="2" fill-rule="evenodd"/>
    <path id="path126" d="M84.006-31,84-44.933a2.946,2.946,0,0,1,3.176-3.061h29.648c2.2,0,3.176,1.112,3.176,3.061V-31" fill="none" stroke="#df0a1e" stroke-linecap="round" stroke-linejoin="round" stroke-miterlimit="79.84" stroke-width="2" fill-rule="evenodd"/>
    <path id="path128" d="M96-20,81.505-7.918" fill="none" stroke="#df0a1e" stroke-linecap="round" stroke-linejoin="round" stroke-miterlimit="79.84" stroke-width="2" fill-rule="evenodd"/>
    <path id="path130" d="M109-21,123.7-8.559" fill="none" stroke="#df0a1e" stroke-linecap="round" stroke-linejoin="round" stroke-miterlimit="79.84" stroke-width="2" fill-rule="evenodd"/>
  </g>
</svg>
