<svg xmlns="http://www.w3.org/2000/svg" width="20.569" height="24.991" viewBox="0 0 20.569 24.991">
  <g id="Group_6" transform="translate(-19.729 35.983)">
    <path id="path153" d="M17-35.983v24.99H37.569v-24.99Z" transform="translate(2.729)" fill="none" fill-rule="evenodd"/>
    <path id="path155" d="M37-11.993a1.769,1.769,0,0,0,2-2V-28.986a2.829,2.829,0,0,0-1-2l-3-3a3.321,3.321,0,0,0-2-1H23a1.889,1.889,0,0,0-2,2v18.993a1.769,1.769,0,0,0,2,2Z" fill="none" stroke="#e2000f" stroke-linecap="round" stroke-linejoin="round" stroke-miterlimit="79.84" stroke-width="2" fill-rule="evenodd"/>
    <path id="path157" d="M33-33.984v4a1,1,0,0,0,1,1h4" fill="none" stroke="#e2000f" stroke-linecap="round" stroke-linejoin="round" stroke-miterlimit="79.84" stroke-width="2" fill-rule="evenodd"/>
    <path id="path159" d="M26-22.988h8" fill="none" stroke="#e2000f" stroke-linecap="round" stroke-linejoin="round" stroke-miterlimit="79.84" stroke-width="2" fill-rule="evenodd"/>
    <path id="path161" d="M26-18.99h4" fill="none" stroke="#e2000f" stroke-linecap="round" stroke-linejoin="round" stroke-miterlimit="79.84" stroke-width="2" fill-rule="evenodd"/>
  </g>
</svg>
