<svg xmlns="http://www.w3.org/2000/svg" width="200" height="56.754" viewBox="0 0 200 56.754">
  <g id="Group_27" data-name="Group 27" transform="translate(-135 -28.443)">
    <rect id="Rectangle_567" data-name="Rectangle 567" width="200" height="41.798" transform="translate(135 28.443)" fill="#e2000f"/>
    <path id="Path_101" data-name="Path 101" d="M3282.5,2714.128V2687.1h21.937v5.791h-14.494v5.458h13.038v5.86h-13.038v9.919Z" transform="translate(-3016.418 -2651.455)" fill="#fff"/>
    <path id="Path_102" data-name="Path 102" d="M2986.4,2714.128V2687.1h22.189v5.791h-14.747v4.7h13.44v5.825h-13.44v4.851H3008.9v5.86Z" transform="translate(-2754.272 -2651.455)" fill="#fff"/>
    <path id="Path_103" data-name="Path 103" d="M2640.654,2697.278a7.8,7.8,0,0,0,1.949,5.458,6.913,6.913,0,0,0,9.988,0,7.749,7.749,0,0,0,1.949-5.458,7.86,7.86,0,0,0-1.949-5.481,6.888,6.888,0,0,0-9.988,0,7.841,7.841,0,0,0-1.949,5.481m-7.454,0a14.566,14.566,0,0,1,1.043-5.573,13.435,13.435,0,0,1,7.683-7.454,16.213,16.213,0,0,1,5.688-.952,16.478,16.478,0,0,1,5.734.952,13.221,13.221,0,0,1,7.672,7.442,15.187,15.187,0,0,1,0,11.123,13.084,13.084,0,0,1-3.1,4.53,13.8,13.8,0,0,1-4.6,2.913,17.146,17.146,0,0,1-11.364.011,13.364,13.364,0,0,1-4.587-2.924,13.084,13.084,0,0,1-3.1-4.53A13.792,13.792,0,0,1,2633.2,2697.278Z" transform="translate(-2441.575 -2648.091)" fill="#fff"/>
    <path id="Path_104" data-name="Path 104" d="M2273.2,2714.128V2687.1h7.866l6.513,10.882,6.548-10.882h7.855v27.028h-6.926v-16.719l-7.477,11.479-7.408-11.479v16.719Z" transform="translate(-2122.857 -2651.455)" fill="#fff"/>
    <path id="Path_105" data-name="Path 105" d="M3569.6,2714.128V2687.1h21.925v5.791h-14.483v5.458h13.027v5.86h-13.027v9.919Z" transform="translate(-3270.596 -2651.455)" fill="#fff"/>
    <path id="Path_106" data-name="Path 106" d="M2348.518,3083.54h-2.42c-.86,0-1.3.367-1.3,1.1a1.115,1.115,0,0,0,.207.711.972.972,0,0,0,.527.344,2.855,2.855,0,0,0,.734.092h2.248Zm0,3h-1.468l-2.167,2.832h-1.273l2.236-2.832a2.466,2.466,0,0,1-.94-.2,1.8,1.8,0,0,1-.78-.631,1.874,1.874,0,0,1-.31-1.112,1.664,1.664,0,0,1,.321-1.066,1.816,1.816,0,0,1,.86-.573,3.8,3.8,0,0,1,1.17-.172h3.325v6.594h-.975Zm-14.449,1.56h.023l3.589-5.332h1.147v6.594h-.94v-5.333h-.023l-3.646,5.333h-1.089v-6.594h.94Zm-6.984-5.332h.975v6.594h-.975v-3.073h-3.75v3.073h-.975v-6.594h.975v2.729h3.75Zm-9.632,6.594h-5.3v-6.594h5.229v.791h-4.254v2.018h3.933v.791h-3.933v2.2h4.323Zm-13.417-.792h2.007v-5.8h.975v6.594H2300.1v-6.594h.975v5.8h2v-5.8h.975v5.8Zm-8.853.792h-5.3v-6.594h5.229v.791h-4.254v2.018h3.933v.791h-3.933v2.2h4.323Zm-14.541-3.532h2.041c.975,0,1.456-.39,1.456-1.181,0-.734-.47-1.1-1.422-1.1h-2.076Zm0,3.543h-.975v-6.594h3.337a2.546,2.546,0,0,1,1.135.241,1.754,1.754,0,0,1,.745.665,1.79,1.79,0,0,1,.252.952,1.97,1.97,0,0,1-.528,1.376,2.038,2.038,0,0,1-1.605.585h-2.362Zm-12.534-.011h-5.3v-6.594h5.229v.791h-4.254v2.018h3.933v.791h-3.933v2.2h4.323ZM2253,3088.1h.023l3.589-5.332h1.147v6.594h-.94v-5.333h-.023l-3.647,5.333h-1.089v-6.594h.94Zm-6.41,1.261H2240v-6.594h.975v5.8h2v-5.8h.975v5.8h2.007v-5.8h.975v5.8h.551v2.018h-.883v-1.227Zm-14.609-5.975a2.194,2.194,0,0,0-1.25.344,2.072,2.072,0,0,0-.78.952,3.524,3.524,0,0,0-.264,1.387,2.954,2.954,0,0,0,.619,1.938,2.08,2.08,0,0,0,1.674.745,2.245,2.245,0,0,0,1.25-.344,2.161,2.161,0,0,0,.791-.952,3.518,3.518,0,0,0,.264-1.387,3.6,3.6,0,0,0-.161-1.078,2.329,2.329,0,0,0-.459-.849,2.16,2.16,0,0,0-.722-.562A2.37,2.37,0,0,0,2231.976,3083.391Zm-3.28,2.9h-.895v3.073h-.975v-6.594h.975v2.729h.906a4.255,4.255,0,0,1,.3-1.055,3.243,3.243,0,0,1,.608-.929,2.723,2.723,0,0,1,.975-.665,3.947,3.947,0,0,1,2.947.069,2.848,2.848,0,0,1,1.021.837,3.539,3.539,0,0,1,.551,1.124,4.343,4.343,0,0,1,.172,1.193,4.264,4.264,0,0,1-.172,1.181,3.479,3.479,0,0,1-.573,1.124,3,3,0,0,1-1.055.849,3.6,3.6,0,0,1-1.594.321,3.381,3.381,0,0,1-1.422-.287,2.749,2.749,0,0,1-.975-.78,3.413,3.413,0,0,1-.562-1.044A4.421,4.421,0,0,1,2228.7,3086.292Zm-6.777,3.073h-5.3v-6.594h5.229v.791H2217.6v2.018h3.933v.791H2217.6v2.2h4.323Zm-14.54-.757h2.064a1.74,1.74,0,0,0,1.135-.321,1.071,1.071,0,0,0,.39-.883c0-.734-.562-1.112-1.674-1.112h-1.9v2.316Zm0-3.039h1.743a2.153,2.153,0,0,0,1.124-.241.9.9,0,0,0,.378-.826.806.806,0,0,0-.355-.722,2.038,2.038,0,0,0-1.135-.241h-1.754Zm-.975-2.8h3.165a2.615,2.615,0,0,1,1.1.218,1.543,1.543,0,0,1,.688.6,1.612,1.612,0,0,1,.229.837,1.414,1.414,0,0,1-.963,1.376,2.794,2.794,0,0,1,.929.539,1.378,1.378,0,0,1,.367,1.066,1.7,1.7,0,0,1-.287.975,1.887,1.887,0,0,1-.837.7,3.111,3.111,0,0,1-1.319.264h-3.1v-6.571Zm-6.559,3.887-1.055-2.9h-.023l-1.147,2.9Zm-2.523.792-.745,1.915h-1l2.695-6.594h1.1l2.6,6.594h-1.055l-.711-1.915Zm-9.357,1.915h-.975v-2.316l-.883-.94-2.225,3.257h-1.261l2.775-3.876-2.695-2.718h1.342l2.947,3.2v-3.2h.975v3.2l2.947-3.2h1.342l-2.695,2.718,2.775,3.876h-1.261l-2.225-3.257-.883.94Zm-13.417-3.532h2.041c.975,0,1.456-.39,1.456-1.181,0-.734-.47-1.1-1.422-1.1h-2.076Zm0,3.543h-.975v-6.594h3.337a2.546,2.546,0,0,1,1.135.241,1.757,1.757,0,0,1,.745.665,1.79,1.79,0,0,1,.252.952,1.97,1.97,0,0,1-.527,1.376,2.038,2.038,0,0,1-1.605.585h-2.362Zm-5.883-.011h-5.3v-6.594h5.229v.791h-4.254v2.018h3.933v.791h-3.933v2.2h4.323Zm-11.341-6.594h.975v6.594h-.975v-3.073h-3.75v3.073h-.975v-6.594h.975v2.729h3.75Z" transform="translate(-2016.086 -3005.602)" fill="#1a1a18"/>
    <path id="Path_107" data-name="Path 107" d="M2348.518,3083.54h-2.42c-.86,0-1.3.367-1.3,1.1a1.115,1.115,0,0,0,.207.711.972.972,0,0,0,.527.344,2.855,2.855,0,0,0,.734.092h2.248Zm0,3h-1.468l-2.167,2.832h-1.273l2.236-2.832a2.466,2.466,0,0,1-.94-.2,1.8,1.8,0,0,1-.78-.631,1.874,1.874,0,0,1-.31-1.112,1.664,1.664,0,0,1,.321-1.066,1.816,1.816,0,0,1,.86-.573,3.8,3.8,0,0,1,1.17-.172h3.325v6.594h-.975Zm-14.449,1.56h.023l3.589-5.332h1.147v6.594h-.94v-5.333h-.023l-3.646,5.333h-1.089v-6.594h.94Zm-6.984-5.332h.975v6.594h-.975v-3.073h-3.75v3.073h-.975v-6.594h.975v2.729h3.75Zm-9.632,6.594h-5.3v-6.594h5.229v.791h-4.254v2.018h3.933v.791h-3.933v2.2h4.323Zm-13.417-.792h2.007v-5.8h.975v6.594H2300.1v-6.594h.975v5.8h2v-5.8h.975v5.8Zm-8.853.792h-5.3v-6.594h5.229v.791h-4.254v2.018h3.933v.791h-3.933v2.2h4.323Zm-14.541-3.532h2.041c.975,0,1.456-.39,1.456-1.181,0-.734-.47-1.1-1.422-1.1h-2.076Zm0,3.543h-.975v-6.594h3.337a2.546,2.546,0,0,1,1.135.241,1.754,1.754,0,0,1,.745.665,1.79,1.79,0,0,1,.252.952,1.97,1.97,0,0,1-.528,1.376,2.038,2.038,0,0,1-1.605.585h-2.362Zm-12.534-.011h-5.3v-6.594h5.229v.791h-4.254v2.018h3.933v.791h-3.933v2.2h4.323ZM2253,3088.1h.023l3.589-5.332h1.147v6.594h-.94v-5.333h-.023l-3.647,5.333h-1.089v-6.594h.94Zm-6.41,1.261H2240v-6.594h.975v5.8h2v-5.8h.975v5.8h2.007v-5.8h.975v5.8h.551v2.018h-.883v-1.227Zm-14.609-5.975a2.194,2.194,0,0,0-1.25.344,2.072,2.072,0,0,0-.78.952,3.524,3.524,0,0,0-.264,1.387,2.954,2.954,0,0,0,.619,1.938,2.08,2.08,0,0,0,1.674.745,2.245,2.245,0,0,0,1.25-.344,2.161,2.161,0,0,0,.791-.952,3.518,3.518,0,0,0,.264-1.387,3.6,3.6,0,0,0-.161-1.078,2.329,2.329,0,0,0-.459-.849,2.16,2.16,0,0,0-.722-.562A2.37,2.37,0,0,0,2231.976,3083.391Zm-3.28,2.9h-.895v3.073h-.975v-6.594h.975v2.729h.906a4.255,4.255,0,0,1,.3-1.055,3.243,3.243,0,0,1,.608-.929,2.723,2.723,0,0,1,.975-.665,3.947,3.947,0,0,1,2.947.069,2.848,2.848,0,0,1,1.021.837,3.539,3.539,0,0,1,.551,1.124,4.343,4.343,0,0,1,.172,1.193,4.264,4.264,0,0,1-.172,1.181,3.479,3.479,0,0,1-.573,1.124,3,3,0,0,1-1.055.849,3.6,3.6,0,0,1-1.594.321,3.381,3.381,0,0,1-1.422-.287,2.749,2.749,0,0,1-.975-.78,3.413,3.413,0,0,1-.562-1.044A4.421,4.421,0,0,1,2228.7,3086.292Zm-6.777,3.073h-5.3v-6.594h5.229v.791H2217.6v2.018h3.933v.791H2217.6v2.2h4.323Zm-14.54-.757h2.064a1.74,1.74,0,0,0,1.135-.321,1.071,1.071,0,0,0,.39-.883c0-.734-.562-1.112-1.674-1.112h-1.9v2.316Zm0-3.039h1.743a2.153,2.153,0,0,0,1.124-.241.9.9,0,0,0,.378-.826.806.806,0,0,0-.355-.722,2.038,2.038,0,0,0-1.135-.241h-1.754Zm-.975-2.8h3.165a2.615,2.615,0,0,1,1.1.218,1.543,1.543,0,0,1,.688.6,1.612,1.612,0,0,1,.229.837,1.414,1.414,0,0,1-.963,1.376,2.794,2.794,0,0,1,.929.539,1.378,1.378,0,0,1,.367,1.066,1.7,1.7,0,0,1-.287.975,1.887,1.887,0,0,1-.837.7,3.111,3.111,0,0,1-1.319.264h-3.1v-6.571Zm-6.559,3.887-1.055-2.9h-.023l-1.147,2.9Zm-2.523.792-.745,1.915h-1l2.695-6.594h1.1l2.6,6.594h-1.055l-.711-1.915Zm-9.357,1.915h-.975v-2.316l-.883-.94-2.225,3.257h-1.261l2.775-3.876-2.695-2.718h1.342l2.947,3.2v-3.2h.975v3.2l2.947-3.2h1.342l-2.695,2.718,2.775,3.876h-1.261l-2.225-3.257-.883.94Zm-13.417-3.532h2.041c.975,0,1.456-.39,1.456-1.181,0-.734-.47-1.1-1.422-1.1h-2.076Zm0,3.543h-.975v-6.594h3.337a2.546,2.546,0,0,1,1.135.241,1.757,1.757,0,0,1,.745.665,1.79,1.79,0,0,1,.252.952,1.97,1.97,0,0,1-.527,1.376,2.038,2.038,0,0,1-1.605.585h-2.362Zm-5.883-.011h-5.3v-6.594h5.229v.791h-4.254v2.018h3.933v.791h-3.933v2.2h4.323Zm-11.341-6.594h.975v6.594h-.975v-3.073h-3.75v3.073h-.975v-6.594h.975v2.729h3.75Z" transform="translate(-2016.086 -3005.602)" fill="none" stroke="#1a1a18" stroke-miterlimit="22.926" stroke-width="0.415"/>
    <path id="Path_108" data-name="Path 108" d="M3778.468,2648.327a2.741,2.741,0,1,1-2.741,2.741,2.741,2.741,0,0,1,2.741-2.741m0-.527a3.268,3.268,0,1,1-3.268,3.268A3.274,3.274,0,0,1,3778.468,2647.8Z" transform="translate(-3451.619 -2615.662)" fill="#fff" fill-rule="evenodd"/>
    <path id="Path_109" data-name="Path 109" d="M3793.367,2663.091h.792a.877.877,0,0,0,.39-.069.423.423,0,0,0,.218-.206.669.669,0,0,0,.069-.3.558.558,0,0,0-.138-.39.57.57,0,0,0-.447-.149h-.883Zm-.367,1.869v-3.36h1.238a1.392,1.392,0,0,1,.562.092.7.7,0,0,1,.31.321,1.056,1.056,0,0,1,.115.5.989.989,0,0,1-.195.608.909.909,0,0,1-.6.31.719.719,0,0,1,.218.172,2.518,2.518,0,0,1,.31.447l.481.917h-.458l-.367-.7a4.182,4.182,0,0,0-.264-.459,1.587,1.587,0,0,0-.184-.229.634.634,0,0,0-.172-.092.994.994,0,0,0-.207-.011h-.424v1.491H3793Z" transform="translate(-3467.378 -2627.879)" fill="#fff"/>
  </g>
</svg>
